<svg width="32" height="28" viewBox="0 0 32 28" fill="none" xmlns="http://www.w3.org/2000/svg">
<path d="M15.2 27.2C13.8667 27.2 12.7333 26.7333 11.8 25.8C10.8667 24.8667 10.4 23.7333 10.4 22.4H13.6C13.6 22.8533 13.7536 23.2331 14.0608 23.5392C14.3669 23.8464 14.7467 24 15.2 24C15.6533 24 16.0336 23.8464 16.3408 23.5392C16.6469 23.2331 16.8 22.8533 16.8 22.4C16.8 21.9467 16.6469 21.5669 16.3408 21.2608C16.0336 20.9536 15.6533 20.8 15.2 20.8H0V17.6H15.2C16.5333 17.6 17.6667 18.0667 18.6 19C19.5333 19.9333 20 21.0667 20 22.4C20 23.7333 19.5333 24.8667 18.6 25.8C17.6667 26.7333 16.5333 27.2 15.2 27.2ZM0 11.2V8H21.6C22.2933 8 22.8667 7.77333 23.32 7.32C23.7733 6.86667 24 6.29333 24 5.6C24 4.90667 23.7733 4.33333 23.32 3.88C22.8667 3.42667 22.2933 3.2 21.6 3.2C20.9067 3.2 20.3333 3.42667 19.88 3.88C19.4267 4.33333 19.2 4.90667 19.2 5.6H16C16 4.02667 16.5397 2.69973 17.6192 1.6192C18.6997 0.539734 20.0267 0 21.6 0C23.1733 0 24.5003 0.539734 25.5808 1.6192C26.6603 2.69973 27.2 4.02667 27.2 5.6C27.2 7.17333 26.6603 8.49973 25.5808 9.5792C24.5003 10.6597 23.1733 11.2 21.6 11.2H0ZM26.4 24V20.8C27.0933 20.8 27.6667 20.5733 28.12 20.12C28.5733 19.6667 28.8 19.0933 28.8 18.4C28.8 17.7067 28.5733 17.1333 28.12 16.68C27.6667 16.2267 27.0933 16 26.4 16H0V12.8H26.4C27.9733 12.8 29.3003 13.3397 30.3808 14.4192C31.4603 15.4997 32 16.8267 32 18.4C32 19.9733 31.4603 21.3003 30.3808 22.3808C29.3003 23.4603 27.9733 24 26.4 24Z" fill="#699BF7"/>
</svg>
